<svg xmlns="http://www.w3.org/2000/svg" width="1075" height="711" fill="none" viewBox="0 0 1075 711">
    <path fill="#AAA" d="M433 4h625v700H433z" filter="url(#a)"/>
    <path fill="#000" d="M116.568 233.976l-.176 1.216h-4.272v3.6h3.712v1.216h-3.712v3.776h4.576V245H110.6v-11.024h5.968zm8.73-.8V245h-1.296l-.144-1.168a3.117 3.117 0 0 1-1.04 1.008 2.78 2.78 0 0 1-1.392.352c-1.003 0-1.787-.395-2.352-1.184-.555-.789-.832-1.851-.832-3.184 0-.864.133-1.632.4-2.304.267-.672.651-1.195 1.152-1.568.501-.384 1.088-.576 1.76-.576.864 0 1.621.347 2.272 1.04V233l1.472.176zm-3.552 10.848c.448 0 .832-.101 1.152-.304.32-.213.629-.528.928-.944v-4.128c-.277-.363-.576-.635-.896-.816a1.96 1.96 0 0 0-1.056-.288c-.651 0-1.157.272-1.52.816-.352.544-.528 1.355-.528 2.432 0 1.088.165 1.899.496 2.432.331.533.805.8 1.424.8zm8.059-7.456V245h-1.472v-8.432h1.472zm-.752-4.048c.309 0 .56.096.752.288a.977.977 0 0 1 .288.72.977.977 0 0 1-.288.72c-.192.181-.443.272-.752.272-.299 0-.544-.091-.736-.272a.977.977 0 0 1-.288-.72c0-.288.096-.528.288-.72a.996.996 0 0 1 .736-.288zm8.051 12.096a3.238 3.238 0 0 1-1.888.576c-.715 0-1.275-.203-1.68-.608-.395-.416-.592-1.013-.592-1.792v-5.088h-1.472v-1.136h1.472v-1.904l1.472-.176v2.08h2l-.16 1.136h-1.84v5.024c0 .437.075.757.224.96.16.192.421.288.784.288.331 0 .704-.112 1.12-.336l.56.976zm4.459-8.24c1.184 0 2.101.395 2.752 1.184.661.789.992 1.861.992 3.216 0 .875-.149 1.648-.448 2.32-.299.661-.731 1.179-1.296 1.552-.565.363-1.237.544-2.016.544-1.184 0-2.107-.395-2.768-1.184-.661-.789-.992-1.861-.992-3.216 0-.875.149-1.643.448-2.304.299-.672.731-1.189 1.296-1.552.565-.373 1.243-.56 2.032-.56zm0 1.184c-1.461 0-2.192 1.077-2.192 3.232 0 2.144.725 3.216 2.176 3.216s2.176-1.077 2.176-3.232c0-2.144-.72-3.216-2.16-3.216zm9.84-1.184c.298 0 .576.032.832.096l-.272 1.44a3.038 3.038 0 0 0-.736-.096c-.523 0-.944.192-1.264.576-.32.384-.571.981-.752 1.792V245h-1.472v-8.432h1.264l.144 1.712c.224-.629.528-1.104.912-1.424.384-.32.832-.48 1.344-.48zM687.12 233.976v9.696h4.528l-.176 1.328H685.6v-11.024h1.52zm7.841 2.592V245h-1.472v-8.432h1.472zm-.752-4.048c.309 0 .56.096.752.288a.977.977 0 0 1 .288.72.977.977 0 0 1-.288.72c-.192.181-.443.272-.752.272-.299 0-.544-.091-.736-.272a.977.977 0 0 1-.288-.72c0-.288.096-.528.288-.72a.996.996 0 0 1 .736-.288zm9.987 4.048L701.332 245h-1.776l-2.912-8.432h1.6l2.208 7.12 2.192-7.12h1.552zm7.989 3.968c0 .245-.011.496-.032.752h-5.376c.064.928.299 1.611.704 2.048.405.437.928.656 1.568.656.405 0 .779-.059 1.12-.176a4.504 4.504 0 0 0 1.072-.56l.64.88c-.896.704-1.877 1.056-2.944 1.056-1.173 0-2.091-.384-2.752-1.152-.651-.768-.976-1.824-.976-3.168 0-.875.139-1.648.416-2.32.288-.683.693-1.216 1.216-1.6.533-.384 1.157-.576 1.872-.576 1.12 0 1.979.368 2.576 1.104.597.736.896 1.755.896 3.056zm-1.456-.432c0-.832-.165-1.467-.496-1.904-.331-.437-.827-.656-1.488-.656-1.205 0-1.861.885-1.968 2.656h3.952v-.096zm11.017-6.128c1.365 0 2.421.288 3.168.864.747.565 1.12 1.413 1.12 2.544 0 1.205-.389 2.101-1.168 2.688-.779.587-1.813.88-3.104.88h-1.392V245h-1.52v-11.024h2.896zm-.048 5.776c.885 0 1.557-.171 2.016-.512.469-.341.704-.955.704-1.84 0-.789-.235-1.36-.704-1.712-.459-.352-1.12-.528-1.984-.528h-1.36v4.592h1.328zm9.72-3.376c.299 0 .576.032.832.096l-.272 1.44a3.032 3.032 0 0 0-.736-.096c-.522 0-.944.192-1.264.576-.32.384-.57.981-.752 1.792V245h-1.472v-8.432h1.264l.144 1.712c.224-.629.528-1.104.912-1.424.384-.32.832-.48 1.344-.48zm8.392 4.16c0 .245-.011.496-.032.752h-5.376c.064.928.299 1.611.704 2.048.405.437.928.656 1.568.656.405 0 .779-.059 1.12-.176a4.504 4.504 0 0 0 1.072-.56l.64.88c-.896.704-1.877 1.056-2.944 1.056-1.173 0-2.091-.384-2.752-1.152-.651-.768-.976-1.824-.976-3.168 0-.875.139-1.648.416-2.32.288-.683.693-1.216 1.216-1.6.533-.384 1.157-.576 1.872-.576 1.12 0 1.979.368 2.576 1.104.597.736.896 1.755.896 3.056zm-1.456-.432c0-.832-.165-1.467-.496-1.904-.331-.437-.827-.656-1.488-.656-1.205 0-1.861.885-1.968 2.656h3.952v-.096zm9.936-3.536L745.426 245h-1.776l-2.912-8.432h1.6l2.208 7.12 2.192-7.12h1.552zm3.155 0V245h-1.472v-8.432h1.472zm-.752-4.048c.309 0 .56.096.752.288a.977.977 0 0 1 .288.72.977.977 0 0 1-.288.72c-.192.181-.443.272-.752.272-.299 0-.544-.091-.736-.272a.977.977 0 0 1-.288-.72c0-.288.096-.528.288-.72a.996.996 0 0 1 .736-.288zm10.164 8.016c0 .245-.011.496-.032.752h-5.376c.064.928.298 1.611.704 2.048.405.437.928.656 1.568.656.405 0 .778-.059 1.12-.176a4.523 4.523 0 0 0 1.072-.56l.64.88c-.896.704-1.878 1.056-2.944 1.056-1.174 0-2.091-.384-2.752-1.152-.651-.768-.976-1.824-.976-3.168 0-.875.138-1.648.416-2.32.288-.683.693-1.216 1.216-1.6.533-.384 1.157-.576 1.872-.576 1.12 0 1.978.368 2.576 1.104.597.736.896 1.755.896 3.056zm-1.456-.432c0-.832-.166-1.467-.496-1.904-.331-.437-.827-.656-1.488-.656-1.206 0-1.862.885-1.968 2.656h3.952v-.096zm13.439-3.536L770.92 245h-2l-1.472-7.104-1.52 7.104h-1.952l-1.968-8.432h1.472l1.52 7.408 1.664-7.408h1.648l1.584 7.408 1.536-7.408h1.408z"/>
    <path fill="#FAFAFA" d="M433 4h637v700H433z" filter="url(#b)"/>
    <mask id="c" width="637" height="700" x="433" y="4" maskUnits="userSpaceOnUse">
        <path fill="#FAFAFA" d="M433 4h637v700H433z"/>
    </mask>
    <g mask="url(#c)">
        <path fill="#000" d="M476.584 111V97.512h-7.632V111h-9.888V77.592h9.888v12.336h7.632V77.592h9.888V111h-9.888zm38.123-13.152c0 .8-.064 1.808-.192 3.024h-15.552c.256 1.728.784 2.896 1.584 3.504.832.576 2.016.864 3.552.864.896 0 1.808-.176 2.736-.528.928-.384 1.952-.96 3.072-1.728l3.84 5.184c-3.104 2.528-6.624 3.792-10.56 3.792-4.544 0-7.984-1.248-10.32-3.744-2.336-2.528-3.504-5.856-3.504-9.984 0-2.56.48-4.88 1.44-6.96.992-2.112 2.448-3.776 4.368-4.992 1.92-1.248 4.24-1.872 6.96-1.872 2.528 0 4.736.528 6.624 1.584s3.344 2.592 4.368 4.608c1.056 2.016 1.584 4.432 1.584 7.248zm-9.36-2.688c-.032-1.504-.272-2.672-.72-3.504-.416-.832-1.184-1.248-2.304-1.248-1.056 0-1.856.368-2.4 1.104-.512.736-.848 2.064-1.008 3.984h6.432v-.336zm19.759 16.8c-2.592 0-4.592-.72-6-2.16-1.376-1.472-2.064-3.536-2.064-6.192v-28.32l9.504-.96v28.896c0 .864.384 1.296 1.152 1.296.352 0 .688-.064 1.008-.192l1.68 6.768c-1.504.576-3.264.864-5.28.864zm14.39 0c-2.592 0-4.592-.72-6-2.16-1.376-1.472-2.064-3.536-2.064-6.192v-28.32l9.504-.96v28.896c0 .864.384 1.296 1.152 1.296.352 0 .688-.064 1.008-.192l1.68 6.768c-1.504.576-3.264.864-5.28.864zm18.333-27.552c4.096 0 7.312 1.2 9.648 3.6 2.368 2.4 3.552 5.808 3.552 10.224 0 2.752-.544 5.168-1.632 7.248-1.056 2.08-2.576 3.68-4.56 4.8-1.984 1.12-4.32 1.68-7.008 1.68-4.096 0-7.328-1.2-9.696-3.6-2.336-2.4-3.504-5.808-3.504-10.224 0-2.752.528-5.168 1.584-7.248 1.088-2.08 2.624-3.68 4.608-4.8 1.984-1.12 4.32-1.68 7.008-1.68zm0 6.816c-1.216 0-2.096.544-2.64 1.632-.544 1.088-.816 2.848-.816 5.28 0 2.528.272 4.336.816 5.424.544 1.056 1.424 1.584 2.64 1.584 1.216 0 2.096-.544 2.64-1.632.544-1.088.816-2.848.816-5.28 0-2.528-.272-4.32-.816-5.376-.544-1.088-1.424-1.632-2.64-1.632zm19.306 10.848c1.408 0 2.576.48 3.504 1.44.96.928 1.44 2.096 1.44 3.504 0 .768-.144 1.568-.432 2.4-.256.8-.752 2.032-1.488 3.696l-2.976 6.72h-4.896l2.112-8.784a4.687 4.687 0 0 1-1.632-1.728c-.384-.704-.576-1.488-.576-2.352 0-1.408.464-2.576 1.392-3.504.96-.928 2.144-1.392 3.552-1.392zm53.422-16.704L625.517 111h-10.896l-2.784-17.184-2.64 17.184h-10.848l-5.136-25.632h9.6l1.536 18.384 3.36-18.384h8.88l2.688 18.384 2.16-18.384h9.12zm18.508-.96c2.144 0 3.824.672 5.04 2.016 1.248 1.344 1.872 3.232 1.872 5.664V111h-9.504V93.816c0-.96-.128-1.616-.384-1.968-.224-.352-.576-.528-1.056-.528-1.056 0-2.128.848-3.216 2.544V111h-9.504V75.288l9.504-.96v13.344c1.088-1.152 2.208-1.984 3.36-2.496 1.152-.512 2.448-.768 3.888-.768zm32.893 18.288c0 .896.112 1.568.336 2.016.224.416.624.736 1.2.96l-1.92 6.096c-1.728-.128-3.136-.448-4.224-.96-1.088-.544-1.984-1.408-2.688-2.592-1.664 2.496-4.24 3.744-7.728 3.744-2.528 0-4.576-.752-6.144-2.256-1.536-1.536-2.304-3.504-2.304-5.904 0-2.848 1.056-5.024 3.168-6.528 2.112-1.504 5.184-2.256 9.216-2.256h1.824v-.624c0-1.28-.256-2.144-.768-2.592-.512-.448-1.488-.672-2.928-.672-.768 0-1.76.128-2.976.384a28.02 28.02 0 0 0-3.648.96l-2.064-6.048a26.947 26.947 0 0 1 5.088-1.488c1.856-.352 3.536-.528 5.04-.528 4.032 0 6.96.784 8.784 2.352 1.824 1.536 2.736 3.904 2.736 7.104v8.832zm-12.096 2.592c.576 0 1.104-.144 1.584-.432a3.791 3.791 0 0 0 1.248-1.104V99.96h-1.008c-1.344 0-2.336.24-2.976.72-.64.48-.96 1.216-.96 2.208 0 .736.192 1.328.576 1.776.384.416.896.624 1.536.624zm34.309 4.464c-.992.704-2.208 1.248-3.648 1.632-1.408.384-2.752.576-4.032.576-3.168-.032-5.52-.912-7.056-2.64-1.504-1.76-2.256-4.352-2.256-7.776V91.8h-3.072v-6.432h3.072v-5.376l9.504-1.104v6.48h5.76l-.96 6.432h-4.8v9.648c0 1.12.176 1.92.528 2.4.352.448.848.672 1.488.672.8 0 1.6-.224 2.4-.672l3.072 5.904zm21.365-24.384V111h-9.504V85.368h9.504zm-4.752-14.16c1.536 0 2.8.496 3.792 1.488 1.024.96 1.536 2.16 1.536 3.6s-.512 2.656-1.536 3.648c-.992.96-2.256 1.44-3.792 1.44s-2.816-.48-3.84-1.44c-.992-.992-1.488-2.208-1.488-3.648s.496-2.64 1.488-3.6c1.024-.992 2.304-1.488 3.84-1.488zm19.067 13.2c1.888 0 3.696.304 5.424.912 1.76.576 3.232 1.376 4.416 2.4l-3.36 5.136a12.481 12.481 0 0 0-2.976-1.344 9.828 9.828 0 0 0-3.121-.528c-1.439 0-2.159.384-2.159 1.152 0 .32.096.592.288.816.192.192.64.448 1.344.768.736.288 1.904.672 3.504 1.152 2.56.8 4.448 1.824 5.664 3.072 1.248 1.216 1.872 2.944 1.872 5.184 0 1.728-.528 3.264-1.584 4.608-1.024 1.344-2.464 2.384-4.32 3.12-1.824.736-3.904 1.104-6.24 1.104-2.24 0-4.352-.352-6.336-1.056-1.952-.736-3.6-1.744-4.945-3.024l4.513-4.992c.96.768 2 1.392 3.12 1.872 1.152.448 2.288.672 3.408.672.864 0 1.52-.128 1.968-.384.48-.288.72-.688.72-1.2 0-.448-.112-.784-.336-1.008-.192-.256-.608-.496-1.248-.72-.64-.256-1.76-.624-3.36-1.104-4.96-1.472-7.44-4.24-7.44-8.304 0-1.568.432-2.976 1.296-4.224.896-1.248 2.176-2.24 3.84-2.976 1.696-.736 3.712-1.104 6.048-1.104zm40.41 26.544c-1.088 3.552-2.944 6.24-5.568 8.064-2.624 1.824-6.08 2.8-10.368 2.928l-1.008-6.48c2.464-.256 4.288-.704 5.472-1.344 1.216-.64 2.16-1.68 2.832-3.12h-3.264l-7.296-25.632h10.08l3.216 19.824 3.984-19.824h9.792l-7.872 25.584zm20.708-26.544c4.096 0 7.312 1.2 9.648 3.6 2.368 2.4 3.552 5.808 3.552 10.224 0 2.752-.544 5.168-1.632 7.248-1.056 2.08-2.576 3.68-4.56 4.8-1.984 1.12-4.32 1.68-7.008 1.68-4.096 0-7.328-1.2-9.696-3.6-2.336-2.4-3.504-5.808-3.504-10.224 0-2.752.528-5.168 1.584-7.248 1.088-2.08 2.624-3.68 4.608-4.8 1.984-1.12 4.32-1.68 7.008-1.68zm0 6.816c-1.216 0-2.096.544-2.64 1.632-.544 1.088-.816 2.848-.816 5.28 0 2.528.272 4.336.816 5.424.544 1.056 1.424 1.584 2.64 1.584 1.216 0 2.096-.544 2.64-1.632.544-1.088.816-2.848.816-5.28 0-2.528-.272-4.32-.816-5.376-.544-1.088-1.424-1.632-2.64-1.632zM840.136 111h-8.304l-.336-2.784c-1.76 2.496-4.288 3.744-7.584 3.744-2.4 0-4.192-.72-5.376-2.16-1.184-1.44-1.776-3.44-1.776-6V85.368h9.504v17.184c0 .928.128 1.584.384 1.968.288.352.688.528 1.2.528.448 0 .912-.176 1.392-.528.512-.352.976-.88 1.392-1.584V85.368h9.504V111zm19.604-26.448c.832 0 1.696.144 2.592.432l-1.488 9.168c-.864-.256-1.648-.384-2.352-.384-1.408 0-2.464.464-3.168 1.392-.672.928-1.216 2.32-1.632 4.176V111h-9.504V85.368h8.304l.768 4.8c.544-1.696 1.408-3.056 2.592-4.08 1.184-1.024 2.48-1.536 3.888-1.536zm31.434-.144c2.144 0 3.824.672 5.04 2.016 1.248 1.344 1.872 3.232 1.872 5.664V111h-9.504V93.816c0-.96-.128-1.616-.384-1.968-.224-.352-.576-.528-1.056-.528-1.056 0-2.128.848-3.216 2.544V111h-9.504V85.368h8.304l.672 2.64c1.184-1.248 2.384-2.16 3.6-2.736 1.248-.576 2.64-.864 4.176-.864zm32.893 18.288c0 .896.112 1.568.336 2.016.224.416.624.736 1.2.96l-1.92 6.096c-1.728-.128-3.136-.448-4.224-.96-1.088-.544-1.984-1.408-2.688-2.592-1.664 2.496-4.24 3.744-7.728 3.744-2.528 0-4.576-.752-6.144-2.256-1.536-1.536-2.304-3.504-2.304-5.904 0-2.848 1.056-5.024 3.168-6.528 2.112-1.504 5.184-2.256 9.216-2.256h1.824v-.624c0-1.28-.256-2.144-.768-2.592-.512-.448-1.488-.672-2.928-.672-.768 0-1.76.128-2.976.384a28.02 28.02 0 0 0-3.648.96l-2.064-6.048a26.947 26.947 0 0 1 5.088-1.488c1.856-.352 3.536-.528 5.04-.528 4.032 0 6.96.784 8.784 2.352 1.824 1.536 2.736 3.904 2.736 7.104v8.832zm-12.096 2.592c.576 0 1.104-.144 1.584-.432a3.791 3.791 0 0 0 1.248-1.104V99.96h-1.008c-1.344 0-2.336.24-2.976.72-.64.48-.96 1.216-.96 2.208 0 .736.192 1.328.576 1.776.384.416.896.624 1.536.624zm46.214-20.88c1.952 0 3.52.688 4.704 2.064 1.216 1.344 1.824 3.216 1.824 5.616V111h-9.504V93.816c0-.928-.112-1.568-.336-1.92-.224-.384-.544-.576-.96-.576-.48 0-.944.224-1.392.672-.448.416-.864 1.04-1.248 1.872V111h-9.504V93.816c0-.928-.112-1.568-.336-1.92-.224-.384-.544-.576-.96-.576-.48 0-.944.224-1.392.672-.448.416-.864 1.04-1.248 1.872V111h-9.504V85.368h8.304l.672 2.592c1.024-1.248 2.128-2.144 3.312-2.688 1.216-.576 2.592-.864 4.128-.864 1.344 0 2.512.32 3.504.96.992.64 1.744 1.552 2.256 2.736 1.088-1.28 2.24-2.208 3.456-2.784 1.216-.608 2.624-.912 4.224-.912zm34.459 13.44c0 .8-.064 1.808-.192 3.024H976.9c.256 1.728.784 2.896 1.584 3.504.832.576 2.016.864 3.552.864.896 0 1.808-.176 2.736-.528.928-.384 1.952-.96 3.072-1.728l3.84 5.184c-3.104 2.528-6.624 3.792-10.56 3.792-4.544 0-7.984-1.248-10.32-3.744-2.336-2.528-3.504-5.856-3.504-9.984 0-2.56.48-4.88 1.44-6.96.992-2.112 2.448-3.776 4.368-4.992 1.92-1.248 4.24-1.872 6.96-1.872 2.528 0 4.736.528 6.624 1.584s3.344 2.592 4.368 4.608c1.056 2.016 1.584 4.432 1.584 7.248zm-9.36-2.688c-.032-1.504-.272-2.672-.72-3.504-.416-.832-1.184-1.248-2.304-1.248-1.056 0-1.856.368-2.4 1.104-.512.736-.848 2.064-1.008 3.984h6.432v-.336zm20.186-18.528c2.44 0 4.5.384 6.2 1.152 1.72.736 3 1.744 3.84 3.024a7.193 7.193 0 0 1 1.29 4.176c0 1.376-.24 2.544-.72 3.504s-1.05 1.744-1.73 2.352c-.67.608-1.55 1.28-2.64 2.016-1.21.864-2.11 1.616-2.68 2.256-.55.608-.82 1.376-.82 2.304v.624h-8.449v-.912c0-1.6.24-2.944.72-4.032s1.04-1.936 1.679-2.544c.64-.64 1.44-1.28 2.4-1.92.83-.544 1.43-.992 1.78-1.344.35-.384.53-.848.53-1.392 0-.608-.21-1.072-.63-1.392-.41-.32-1.02-.48-1.82-.48-1.7 0-3.363.864-4.995 2.592l-5.904-4.608c3.04-3.584 7.024-5.376 11.949-5.376zm-1.44 25.44c1.38 0 2.55.496 3.51 1.488.96.96 1.44 2.112 1.44 3.456 0 1.344-.48 2.512-1.44 3.504-.96.96-2.13 1.44-3.51 1.44-1.37 0-2.541-.48-3.501-1.44-.96-.992-1.44-2.16-1.44-3.504 0-1.344.48-2.496 1.44-3.456.96-.992 2.131-1.488 3.501-1.488z"/>
    </g>
    <path fill="#000" d="M463.832 270.328h-1.712V275h-1.52v-11.024h2.896c1.376 0 2.416.261 3.12.784.715.523 1.072 1.301 1.072 2.336 0 .768-.197 1.392-.592 1.872-.395.48-.992.843-1.792 1.088L468.28 275h-1.808l-2.64-4.672zm-.176-1.168c.8 0 1.403-.16 1.808-.48.405-.331.608-.859.608-1.584 0-.683-.208-1.173-.624-1.472-.405-.309-1.061-.464-1.968-.464h-1.36v4h1.536zm9.485-2.784c1.184 0 2.101.395 2.752 1.184.661.789.992 1.861.992 3.216 0 .875-.149 1.648-.448 2.32-.299.661-.731 1.179-1.296 1.552-.565.363-1.237.544-2.016.544-1.184 0-2.107-.395-2.768-1.184-.661-.789-.992-1.861-.992-3.216 0-.875.149-1.643.448-2.304.299-.672.731-1.189 1.296-1.552.565-.373 1.243-.56 2.032-.56zm0 1.184c-1.461 0-2.192 1.077-2.192 3.232 0 2.144.725 3.216 2.176 3.216s2.176-1.077 2.176-3.232c0-2.144-.72-3.216-2.16-3.216zm10.032-1.184c.96 0 1.723.389 2.288 1.168.565.768.848 1.845.848 3.232 0 .875-.133 1.648-.4 2.32-.267.661-.651 1.179-1.152 1.552-.501.363-1.088.544-1.76.544-.885 0-1.632-.373-2.24-1.12l-.144.928h-1.296v-11.824l1.472-.176v4.624c.608-.832 1.403-1.248 2.384-1.248zm-.528 7.648c.651 0 1.157-.261 1.52-.784.373-.533.56-1.355.56-2.464 0-1.141-.171-1.963-.512-2.464-.341-.512-.827-.768-1.456-.768-.747 0-1.403.437-1.968 1.312v4.032c.224.352.496.629.816.832.331.203.677.304 1.04.304zm7.644-7.456V275h-1.472v-8.432h1.472zm-.752-4.048c.309 0 .56.096.752.288a.977.977 0 0 1 .288.72.977.977 0 0 1-.288.72c-.192.181-.443.272-.752.272-.299 0-.544-.091-.736-.272a.977.977 0 0 1-.288-.72c0-.288.096-.528.288-.72a.996.996 0 0 1 .736-.288zM459 286h500v1H459z"/>
    <path fill="#929191" d="M466.46 231.22l-.22 1.52h-5.34v4.5h4.64v1.52h-4.64v4.72h5.72V245H459v-13.78h7.46zm7.908 3c.96 0 1.706.287 2.24.86.546.573.82 1.36.82 2.36V245h-1.84v-7.3c0-.747-.14-1.273-.42-1.58-.28-.307-.694-.46-1.24-.46-.56 0-1.054.16-1.48.48-.427.32-.827.78-1.2 1.38V245h-1.84v-10.54h1.58l.16 1.56c.373-.56.833-1 1.38-1.32.56-.32 1.173-.48 1.84-.48zm12.079 10.3c-.694.48-1.48.72-2.36.72-.894 0-1.594-.253-2.1-.76-.494-.52-.74-1.267-.74-2.24v-6.36h-1.84v-1.42h1.84v-2.38l1.84-.22v2.6h2.5l-.2 1.42h-2.3v6.28c0 .547.093.947.28 1.2.2.24.526.36.98.36.413 0 .88-.14 1.4-.42l.7 1.22zm9.573-5.1c0 .307-.013.62-.04.94h-6.72c.08 1.16.373 2.013.88 2.56.507.547 1.16.82 1.96.82.507 0 .973-.073 1.4-.22.427-.147.873-.38 1.34-.7l.8 1.1c-1.12.88-2.347 1.32-3.68 1.32-1.467 0-2.613-.48-3.44-1.44-.813-.96-1.22-2.28-1.22-3.96 0-1.093.173-2.06.52-2.9.36-.853.867-1.52 1.52-2 .667-.48 1.447-.72 2.34-.72 1.4 0 2.473.46 3.22 1.38.747.92 1.12 2.193 1.12 3.82zm-1.82-.54c0-1.04-.207-1.833-.62-2.38-.413-.547-1.033-.82-1.86-.82-1.507 0-2.327 1.107-2.46 3.32h4.94v-.12zm9.339-4.66c.373 0 .72.04 1.04.12l-.34 1.8c-.32-.08-.627-.12-.92-.12-.654 0-1.18.24-1.58.72-.4.48-.714 1.227-.94 2.24V245h-1.84v-10.54h1.58l.18 2.14c.28-.787.66-1.38 1.14-1.78.48-.4 1.04-.6 1.68-.6zm12.647 10.84c-.413 1.227-.993 2.193-1.74 2.9-.733.72-1.786 1.153-3.16 1.3l-.2-1.44c.694-.12 1.247-.293 1.66-.52.414-.227.74-.52.98-.88.254-.347.487-.82.7-1.42h-.62l-3.54-10.54h1.96l2.82 9.2 2.76-9.2h1.9l-3.52 10.6zm9.506-10.84c1.48 0 2.627.493 3.44 1.48.827.987 1.24 2.327 1.24 4.02 0 1.093-.187 2.06-.56 2.9-.373.827-.913 1.473-1.62 1.94-.707.453-1.547.68-2.52.68-1.48 0-2.633-.493-3.46-1.48s-1.24-2.327-1.24-4.02c0-1.093.187-2.053.56-2.88.373-.84.913-1.487 1.62-1.94.707-.467 1.553-.7 2.54-.7zm0 1.48c-1.827 0-2.74 1.347-2.74 4.04 0 2.68.907 4.02 2.72 4.02 1.813 0 2.72-1.347 2.72-4.04 0-2.68-.9-4.02-2.7-4.02zm15.56 9.3h-1.58l-.14-1.64c-.4.653-.86 1.133-1.38 1.44-.52.293-1.154.44-1.9.44-.92 0-1.64-.28-2.16-.84-.52-.56-.78-1.353-.78-2.38v-7.56h1.84v7.36c0 .72.126 1.233.38 1.54.253.293.666.44 1.24.44 1.026 0 1.906-.607 2.64-1.82v-7.52h1.84V245zm8.38-10.78c.374 0 .72.04 1.04.12l-.34 1.8c-.32-.08-.626-.12-.92-.12-.653 0-1.18.24-1.58.72-.4.48-.713 1.227-.94 2.24V245h-1.84v-10.54h1.58l.18 2.14c.28-.787.66-1.38 1.14-1.78.48-.4 1.04-.6 1.68-.6zM561.68 230c.56 0 1.067.06 1.52.18.467.12.933.3 1.4.54l-.64 1.28a5.06 5.06 0 0 0-2.22-.5c-.707 0-1.193.127-1.46.38-.267.253-.4.647-.4 1.18v1.4h5.88V245h-1.84v-9.12h-4.04V245h-1.84v-9.12h-1.68v-1.42h1.68v-1.38c0-.933.3-1.68.9-2.24.6-.56 1.513-.84 2.74-.84zm12.464 4.22c.373 0 .72.04 1.04.12l-.34 1.8c-.32-.08-.627-.12-.92-.12-.653 0-1.18.24-1.58.72-.4.48-.713 1.227-.94 2.24V245h-1.84v-10.54h1.58l.18 2.14c.28-.787.66-1.38 1.14-1.78.48-.4 1.04-.6 1.68-.6zm5.702 0c.72 0 1.367.1 1.94.3.573.2 1.12.5 1.64.9l-.78 1.16a6.276 6.276 0 0 0-1.38-.68 4.147 4.147 0 0 0-1.36-.22c-.6 0-1.073.127-1.42.38-.347.24-.52.573-.52 1 0 .427.16.76.48 1 .333.24.927.473 1.78.7 1.173.293 2.047.693 2.62 1.2.587.507.88 1.2.88 2.08 0 1.04-.407 1.833-1.22 2.38-.8.547-1.78.82-2.94.82-1.6 0-2.927-.46-3.98-1.38l.98-1.12c.893.68 1.88 1.02 2.96 1.02.693 0 1.24-.14 1.64-.42.413-.293.62-.687.62-1.18 0-.36-.073-.647-.22-.86-.147-.227-.4-.42-.76-.58-.36-.173-.887-.353-1.58-.54-1.12-.293-1.933-.687-2.44-1.18-.493-.493-.74-1.12-.74-1.88 0-.547.16-1.04.48-1.48.333-.453.787-.8 1.36-1.04.587-.253 1.24-.38 1.96-.38zm11.796 10.3c-.693.48-1.48.72-2.36.72-.893 0-1.593-.253-2.1-.76-.493-.52-.74-1.267-.74-2.24v-6.36h-1.84v-1.42h1.84v-2.38l1.84-.22v2.6h2.5l-.2 1.42h-2.3v6.28c0 .547.093.947.28 1.2.2.24.527.36.98.36.413 0 .88-.14 1.4-.42l.7 1.22zm12.159-10.3c.96 0 1.707.287 2.24.86.547.573.82 1.36.82 2.36V245h-1.84v-7.3c0-.747-.14-1.273-.42-1.58-.28-.307-.693-.46-1.24-.46a2.4 2.4 0 0 0-1.48.48c-.426.32-.826.78-1.2 1.38V245h-1.84v-10.54h1.58l.16 1.56c.374-.56.834-1 1.38-1.32.56-.32 1.174-.48 1.84-.48zm13.859 8.32c0 .427.073.747.22.96.147.2.367.353.66.46l-.42 1.28c-.547-.067-.987-.22-1.32-.46-.333-.24-.58-.613-.74-1.12-.707 1.053-1.753 1.58-3.14 1.58-1.04 0-1.86-.293-2.46-.88-.6-.587-.9-1.353-.9-2.3 0-1.12.4-1.98 1.2-2.58.813-.6 1.96-.9 3.44-.9h1.62v-.78c0-.747-.18-1.28-.54-1.6-.36-.32-.913-.48-1.66-.48-.773 0-1.72.187-2.84.56l-.46-1.34c1.307-.48 2.52-.72 3.64-.72 1.24 0 2.167.307 2.78.92.613.6.92 1.46.92 2.58v4.82zm-4.32 1.32c1.053 0 1.88-.547 2.48-1.64v-2.42h-1.38c-1.947 0-2.92.72-2.92 2.16 0 .627.153 1.1.46 1.42.307.32.76.48 1.36.48zm18.679-9.64c.867 0 1.56.293 2.08.88.52.573.78 1.353.78 2.34V245h-1.84v-7.3c0-1.36-.493-2.04-1.48-2.04-.52 0-.96.153-1.32.46-.36.293-.747.76-1.16 1.4V245h-1.84v-7.3c0-1.36-.493-2.04-1.48-2.04-.533 0-.98.153-1.34.46-.36.307-.74.773-1.14 1.4V245h-1.84v-10.54h1.58l.16 1.54c.787-1.187 1.8-1.78 3.04-1.78.653 0 1.207.167 1.66.5.467.333.8.8 1 1.4.413-.613.867-1.08 1.36-1.4.507-.333 1.1-.5 1.78-.5zm14.529 5.2c0 .307-.014.62-.04.94h-6.72c.08 1.16.373 2.013.88 2.56.506.547 1.16.82 1.96.82.506 0 .973-.073 1.4-.22.426-.147.873-.38 1.34-.7l.8 1.1c-1.12.88-2.347 1.32-3.68 1.32-1.467 0-2.614-.48-3.44-1.44-.814-.96-1.22-2.28-1.22-3.96 0-1.093.173-2.06.52-2.9.36-.853.866-1.52 1.52-2 .666-.48 1.446-.72 2.34-.72 1.4 0 2.473.46 3.22 1.38.746.92 1.12 2.193 1.12 3.82zm-1.82-.54c0-1.04-.207-1.833-.62-2.38-.414-.547-1.034-.82-1.86-.82-1.507 0-2.327 1.107-2.46 3.32h4.94v-.12z"/>
    <path stroke="#000" d="M491.5 256v22"/>
    <path fill="#AAA" d="M4 4h400v700H4z" filter="url(#d)"/>
    <path fill="#fff" d="M4 4h400v700H4z" filter="url(#e)"/>
    <path fill="#000" d="M31.16 48.8c0 .4-.056.8-.168 1.2H22.64V33.824h1.368V48.8h7.152zm3.363 1.2V37.472h1.272V50h-1.272zm1.464-16.176c0 .272-.072.488-.216.648-.144.16-.352.24-.624.24s-.48-.08-.624-.24a1.072 1.072 0 0 1-.192-.648.99.99 0 0 1 .216-.648c.144-.176.352-.264.624-.264s.472.088.6.264a.99.99 0 0 1 .216.648zm13.427 3.72a171.568 171.568 0 0 1-2.112 6.312A192.359 192.359 0 0 1 44.974 50h-1.32c-.384-.96-.768-1.96-1.152-3-.384-1.056-.768-2.12-1.152-3.192a152.027 152.027 0 0 1-1.104-3.192c-.352-1.056-.68-2.08-.984-3.072.16-.032.36-.056.6-.072a4.81 4.81 0 0 1 .624-.048l3.48 9.984c.08.24.144.472.192.696.064.224.12.472.168.744h.072c.048-.272.096-.52.144-.744.064-.24.136-.488.216-.744l3.432-9.936c.448 0 .856.04 1.224.12zm11.692 4.392c0 .272-.008.56-.024.864 0 .304-.008.6-.024.888h-7.776v.144c0 .864.064 1.624.192 2.28.144.64.376 1.184.696 1.632.32.432.736.76 1.248.984.528.208 1.184.312 1.968.312.576 0 1.136-.08 1.68-.24.56-.16 1.016-.352 1.368-.576.08.176.16.368.24.576.08.208.136.4.168.576-.416.272-.952.48-1.608.624-.64.16-1.28.24-1.92.24-1.792 0-3.136-.512-4.032-1.536-.896-1.024-1.344-2.624-1.344-4.8 0-1.2.12-2.224.36-3.072.256-.848.6-1.536 1.032-2.064.448-.544.968-.936 1.56-1.176a4.998 4.998 0 0 1 1.896-.36c1.344 0 2.4.392 3.168 1.176.768.784 1.152 1.96 1.152 3.528zm-4.368-3.624c-1.008 0-1.816.336-2.424 1.008-.608.672-.944 1.792-1.008 3.36h6.528c.016-.112.024-.248.024-.408v-.408c0-1.28-.288-2.192-.864-2.736-.56-.544-1.312-.816-2.256-.816zM79.243 48.8c0 .4-.04.8-.12 1.2h-8.952V33.824h8.688c0 .208-.016.408-.048.6-.016.192-.04.392-.072.6h-7.2v5.808h5.568v1.2H71.54V48.8h7.704zm11.324-9.816a5.1 5.1 0 0 0-1.344-.432 7.617 7.617 0 0 0-1.392-.144c-.608 0-1.168.088-1.68.264-.496.16-.92.448-1.272.864s-.624.976-.816 1.68c-.192.704-.288 1.6-.288 2.688 0 1.024.072 1.872.216 2.544.16.656.376 1.176.648 1.56.288.384.632.656 1.032.816.416.144.888.216 1.416.216.544 0 1.096-.08 1.656-.24.56-.176 1.168-.488 1.824-.936v-8.88zm0 11.016v-1.056h-.072c-.592.464-1.176.8-1.752 1.008-.576.192-1.232.288-1.968.288a4.864 4.864 0 0 1-1.752-.312 3.668 3.668 0 0 1-1.392-1.056c-.384-.496-.688-1.128-.912-1.896-.208-.784-.312-1.736-.312-2.856 0-1.248.128-2.304.384-3.168.256-.88.624-1.592 1.104-2.136.48-.56 1.056-.96 1.728-1.2.688-.256 1.456-.384 2.304-.384.432 0 .872.048 1.32.144.464.08.904.208 1.32.384v-5.472a6.83 6.83 0 0 1 .6-.096c.272-.032.496-.048.672-.048V50h-1.272zm6.557 0V37.472h1.272V50h-1.272zm1.464-16.176c0 .272-.072.488-.216.648-.144.16-.352.24-.624.24s-.48-.08-.624-.24a1.072 1.072 0 0 1-.192-.648.99.99 0 0 1 .216-.648c.144-.176.352-.264.624-.264s.472.088.6.264a.99.99 0 0 1 .216.648zm10.643 16.008c-.32.144-.656.248-1.008.312a5.376 5.376 0 0 1-1.008.096c-1.152 0-1.952-.304-2.4-.912-.448-.608-.672-1.536-.672-2.784v-7.992h-1.56v-1.08h1.56v-2.784c.128-.064.328-.12.6-.168.288-.048.512-.072.672-.072v3.024h3.096c0 .176-.008.36-.024.552-.016.192-.04.368-.072.528h-3v8.112c0 .896.12 1.512.36 1.848.256.336.72.504 1.392.504.288 0 .6-.032.936-.096.336-.064.64-.16.912-.288a3 3 0 0 1 .144.6c.048.208.072.408.072.6zm12.626-6.096c0 1.12-.136 2.096-.408 2.928-.256.816-.616 1.488-1.08 2.016a4.309 4.309 0 0 1-1.656 1.176 5.323 5.323 0 0 1-2.04.384c-.768 0-1.464-.12-2.088-.36a3.848 3.848 0 0 1-1.584-1.128c-.432-.528-.768-1.2-1.008-2.016-.24-.832-.36-1.832-.36-3 0-1.056.12-1.984.36-2.784.256-.816.608-1.496 1.056-2.04a4.376 4.376 0 0 1 1.632-1.248c.624-.288 1.32-.432 2.088-.432.736 0 1.416.112 2.04.336.624.224 1.16.6 1.608 1.128.448.512.8 1.184 1.056 2.016.256.816.384 1.824.384 3.024zm-1.368 0c0-1.024-.088-1.88-.264-2.568-.176-.688-.432-1.232-.768-1.632a2.488 2.488 0 0 0-1.176-.864 4.106 4.106 0 0 0-1.512-.264c-.512 0-1 .08-1.464.24-.448.144-.848.416-1.2.816-.336.384-.608.92-.816 1.608-.192.688-.288 1.576-.288 2.664 0 1.04.08 1.904.24 2.592.176.672.424 1.216.744 1.632.32.4.704.688 1.152.864.464.16.984.24 1.56.24.576 0 1.096-.08 1.56-.24.464-.16.856-.44 1.176-.84.336-.416.592-.968.768-1.656.192-.688.288-1.552.288-2.592zm11.29-6.384c0 .176-.016.392-.048.648s-.064.48-.096.672c-.288-.08-.64-.12-1.056-.12-.208 0-.424.016-.648.048a2.798 2.798 0 0 0-.72.216c-.24.112-.512.288-.816.528-.288.224-.6.536-.936.936V50h-1.272V37.544c.144-.032.344-.056.6-.072.272-.032.496-.048.672-.048v1.584h.072c.384-.416.728-.736 1.032-.96a3.95 3.95 0 0 1 .84-.528c.272-.128.512-.208.72-.24a4.431 4.431 0 0 1 1.128-.024c.208.016.384.048.528.096zM100.82 101v-3.876h-3.48V101H96.2v-8.268h1.14v3.456h3.48v-3.456h1.14V101h-1.14zm8.252-3.348c0 .184-.008.372-.024.564h-4.032c.048.696.224 1.208.528 1.536.304.328.696.492 1.176.492.304 0 .584-.044.84-.132.256-.088.524-.228.804-.42l.48.66c-.672.528-1.408.792-2.208.792-.88 0-1.568-.288-2.064-.864-.488-.576-.732-1.368-.732-2.376 0-.656.104-1.236.312-1.74.216-.512.52-.912.912-1.2.4-.288.868-.432 1.404-.432.84 0 1.484.276 1.932.828.448.552.672 1.316.672 2.292zm-1.092-.324c0-.624-.124-1.1-.372-1.428-.248-.328-.62-.492-1.116-.492-.904 0-1.396.664-1.476 1.992h2.964v-.072zm4.115 3.816c-.408 0-.732-.12-.972-.36-.232-.248-.348-.592-.348-1.032v-7.62l1.104-.132v7.728c0 .176.028.304.084.384.064.08.168.12.312.12.152 0 .288-.024.408-.072l.288.768a1.8 1.8 0 0 1-.876.216zm3.516 0c-.408 0-.732-.12-.972-.36-.232-.248-.348-.592-.348-1.032v-7.62l1.104-.132v7.728c0 .176.028.304.084.384.064.08.168.12.312.12.152 0 .288-.024.408-.072l.288.768a1.8 1.8 0 0 1-.876.216zm4.573-6.612c.888 0 1.576.296 2.064.888.496.592.744 1.396.744 2.412 0 .656-.112 1.236-.336 1.74a2.68 2.68 0 0 1-.972 1.164c-.424.272-.928.408-1.512.408-.888 0-1.58-.296-2.076-.888-.496-.592-.744-1.396-.744-2.412 0-.656.112-1.232.336-1.728.224-.504.548-.892.972-1.164.424-.28.932-.42 1.524-.42zm0 .888c-1.096 0-1.644.808-1.644 2.424 0 1.608.544 2.412 1.632 2.412 1.088 0 1.632-.808 1.632-2.424 0-1.608-.54-2.412-1.62-2.412zm4.803 4.056c.24 0 .44.08.6.24a.8.8 0 0 1 .24.588c0 .248-.072.532-.216.852l-.804 1.836h-.792l.48-1.992a.918.918 0 0 1-.252-.3.925.925 0 0 1-.084-.396.8.8 0 0 1 .24-.588.8.8 0 0 1 .588-.24zm12.994-4.8l-1.44 6.324h-1.5l-1.104-5.328-1.14 5.328h-1.464l-1.476-6.324h1.104l1.14 5.556 1.248-5.556h1.236l1.188 5.556 1.152-5.556h1.056zm4.354-.144c.576 0 1.024.172 1.344.516.328.344.492.816.492 1.416V101h-1.104v-4.38c0-.448-.088-.764-.264-.948-.168-.184-.416-.276-.744-.276s-.62.096-.876.288c-.256.192-.496.464-.72.816v4.5h-1.104v-8.856l1.104-.12v3.528c.496-.68 1.12-1.02 1.872-1.02zm8.315 4.992c0 .256.044.448.132.576.088.12.22.212.396.276l-.252.768c-.328-.04-.592-.132-.792-.276-.2-.144-.348-.368-.444-.672-.424.632-1.052.948-1.884.948-.624 0-1.116-.176-1.476-.528-.36-.352-.54-.812-.54-1.38 0-.672.24-1.188.72-1.548.488-.36 1.176-.54 2.064-.54h.972v-.468c0-.448-.108-.768-.324-.96-.216-.192-.548-.288-.996-.288-.464 0-1.032.112-1.704.336l-.276-.804c.784-.288 1.512-.432 2.184-.432.744 0 1.3.184 1.668.552.368.36.552.876.552 1.548v2.892zm-2.592.792c.632 0 1.128-.328 1.488-.984V97.88h-.828c-1.168 0-1.752.432-1.752 1.296 0 .376.092.66.276.852.184.192.456.288.816.288zm8.051.396a2.428 2.428 0 0 1-1.416.432c-.536 0-.956-.152-1.26-.456-.296-.312-.444-.76-.444-1.344v-3.816h-1.104v-.852h1.104v-1.428l1.104-.132v1.56h1.5l-.12.852h-1.38v3.768c0 .328.056.568.168.72.12.144.316.216.588.216.248 0 .528-.084.84-.252l.42.732zm5.424-6.036V101h-1.104v-6.324h1.104zm-.564-3.036c.232 0 .42.072.564.216a.733.733 0 0 1 .216.54.733.733 0 0 1-.216.54.788.788 0 0 1-.564.204.772.772 0 0 1-.552-.204.733.733 0 0 1-.216-.54c0-.216.072-.396.216-.54a.748.748 0 0 1 .552-.216zm4.563 2.892c.432 0 .82.06 1.164.18s.672.3.984.54l-.468.696a3.766 3.766 0 0 0-.828-.408 2.493 2.493 0 0 0-.816-.132c-.36 0-.644.076-.852.228a.69.69 0 0 0-.312.6c0 .256.096.456.288.6.2.144.556.284 1.068.42.704.176 1.228.416 1.572.72.352.304.528.72.528 1.248 0 .624-.244 1.1-.732 1.428-.48.328-1.068.492-1.764.492-.96 0-1.756-.276-2.388-.828l.588-.672a2.865 2.865 0 0 0 1.776.612c.416 0 .744-.084.984-.252a.826.826 0 0 0 .372-.708c0-.216-.044-.388-.132-.516-.088-.136-.24-.252-.456-.348a5.748 5.748 0 0 0-.948-.324c-.672-.176-1.16-.412-1.464-.708-.296-.296-.444-.672-.444-1.128 0-.328.096-.624.288-.888.2-.272.472-.48.816-.624a2.937 2.937 0 0 1 1.176-.228zm9.593 6.504c-.248.736-.596 1.316-1.044 1.74-.44.432-1.072.692-1.896.78l-.12-.864c.416-.072.748-.176.996-.312s.444-.312.588-.528c.152-.208.292-.492.42-.852h-.372l-2.124-6.324h1.176l1.692 5.52 1.656-5.52h1.14l-2.112 6.36zm5.704-6.504c.888 0 1.576.296 2.064.888.496.592.744 1.396.744 2.412 0 .656-.112 1.236-.336 1.74a2.68 2.68 0 0 1-.972 1.164c-.424.272-.928.408-1.512.408-.888 0-1.58-.296-2.076-.888-.496-.592-.744-1.396-.744-2.412 0-.656.112-1.232.336-1.728.224-.504.548-.892.972-1.164.424-.28.932-.42 1.524-.42zm0 .888c-1.096 0-1.644.808-1.644 2.424 0 1.608.544 2.412 1.632 2.412 1.088 0 1.632-.808 1.632-2.424 0-1.608-.54-2.412-1.62-2.412zm9.335 5.58h-.948l-.084-.984c-.24.392-.516.68-.828.864-.312.176-.692.264-1.14.264-.552 0-.984-.168-1.296-.504-.312-.336-.468-.812-.468-1.428v-4.536h1.104v4.416c0 .432.076.74.228.924.152.176.4.264.744.264.616 0 1.144-.364 1.584-1.092v-4.512h1.104V101zm5.029-6.468c.224 0 .432.024.624.072l-.204 1.08a2.275 2.275 0 0 0-.552-.072c-.392 0-.708.144-.948.432-.24.288-.428.736-.564 1.344V101h-1.104v-6.324h.948l.108 1.284c.168-.472.396-.828.684-1.068.288-.24.624-.36 1.008-.36zm8.032 0c.576 0 1.024.172 1.344.516.328.344.492.816.492 1.416V101h-1.104v-4.38c0-.448-.084-.764-.252-.948-.168-.184-.416-.276-.744-.276a1.44 1.44 0 0 0-.888.288c-.256.192-.496.468-.72.828V101h-1.104v-6.324h.948l.096.936c.224-.336.5-.6.828-.792a2.186 2.186 0 0 1 1.104-.288zm8.316 4.992c0 .256.044.448.132.576.088.12.22.212.396.276l-.252.768c-.328-.04-.592-.132-.792-.276-.2-.144-.348-.368-.444-.672-.424.632-1.052.948-1.884.948-.624 0-1.116-.176-1.476-.528-.36-.352-.54-.812-.54-1.38 0-.672.24-1.188.72-1.548.488-.36 1.176-.54 2.064-.54h.972v-.468c0-.448-.108-.768-.324-.96-.216-.192-.548-.288-.996-.288-.464 0-1.032.112-1.704.336l-.276-.804c.784-.288 1.512-.432 2.184-.432.744 0 1.3.184 1.668.552.368.36.552.876.552 1.548v2.892zm-2.592.792c.632 0 1.128-.328 1.488-.984V97.88h-.828c-1.168 0-1.752.432-1.752 1.296 0 .376.092.66.276.852.184.192.456.288.816.288zm11.207-5.784c.52 0 .936.176 1.248.528.312.344.468.812.468 1.404V101h-1.104v-4.38c0-.816-.296-1.224-.888-1.224a1.18 1.18 0 0 0-.792.276c-.216.176-.448.456-.696.84V101h-1.104v-4.38c0-.816-.296-1.224-.888-1.224-.32 0-.588.092-.804.276-.216.184-.444.464-.684.84V101h-1.104v-6.324h.948l.096.924c.472-.712 1.08-1.068 1.824-1.068.392 0 .724.1.996.3.28.2.48.48.6.84.248-.368.52-.648.816-.84.304-.2.66-.3 1.068-.3zm8.717 3.12c0 .184-.008.372-.024.564h-4.032c.048.696.224 1.208.528 1.536.304.328.696.492 1.176.492.304 0 .584-.044.84-.132.256-.088.524-.228.804-.42l.48.66c-.672.528-1.408.792-2.208.792-.88 0-1.568-.288-2.064-.864-.488-.576-.732-1.368-.732-2.376 0-.656.104-1.236.312-1.74.216-.512.52-.912.912-1.2.4-.288.868-.432 1.404-.432.84 0 1.484.276 1.932.828.448.552.672 1.316.672 2.292zm-1.092-.324c0-.624-.124-1.1-.372-1.428-.248-.328-.62-.492-1.116-.492-.904 0-1.396.664-1.476 1.992h2.964v-.072zm4.091-4.74c.48 0 .892.088 1.236.264.352.168.616.396.792.684.176.288.264.596.264.924 0 .312-.056.58-.168.804a1.668 1.668 0 0 1-.384.528 7.551 7.551 0 0 1-.612.48c-.336.232-.588.448-.756.648-.168.192-.252.452-.252.78v.54H230.9v-.6c0-.344.056-.636.168-.876.12-.24.26-.432.42-.576.16-.144.372-.308.636-.492.304-.2.528-.38.672-.54.144-.16.216-.368.216-.624 0-.328-.108-.58-.324-.756-.216-.184-.512-.276-.888-.276-.64 0-1.196.288-1.668.864l-.756-.588c.672-.792 1.504-1.188 2.496-1.188zm-.396 6.888c.24 0 .44.08.6.24a.8.8 0 0 1 .24.588.84.84 0 0 1-.24.6c-.16.16-.36.24-.6.24a.8.8 0 0 1-.588-.24.84.84 0 0 1-.24-.6.8.8 0 0 1 .24-.588.8.8 0 0 1 .588-.24z"/>
    <rect width="55" height="17" x="24" y="88" fill="#00BCD4" rx="4"/>
    <path stroke="#fff" d="M34 93.5h16M34 96.5h16M34 99.5h16"/>
    <circle cx="44.5" cy="129.5" r="3.5" fill="#fff"/>
    <defs>
        <filter id="a" width="633" height="708" x="429" y="2" color-interpolation-filters="sRGB" filterUnits="userSpaceOnUse">
            <feFlood flood-opacity="0" result="BackgroundImageFix"/>
            <feColorMatrix in="SourceAlpha" values="0 0 0 0 0 0 0 0 0 0 0 0 0 0 0 0 0 0 127 0"/>
            <feOffset dy="2"/>
            <feGaussianBlur stdDeviation="2"/>
            <feColorMatrix values="0 0 0 0 0 0 0 0 0 0 0 0 0 0 0 0 0 0 0.25 0"/>
            <feBlend in2="BackgroundImageFix" result="effect1_dropShadow"/>
            <feBlend in="SourceGraphic" in2="effect1_dropShadow" result="shape"/>
        </filter>
        <filter id="b" width="647" height="711" x="428" y="0" color-interpolation-filters="sRGB" filterUnits="userSpaceOnUse">
            <feFlood flood-opacity="0" result="BackgroundImageFix"/>
            <feColorMatrix in="SourceAlpha" values="0 0 0 0 0 0 0 0 0 0 0 0 0 0 0 0 0 0 127 0"/>
            <feOffset dy="1"/>
            <feGaussianBlur stdDeviation="2.5"/>
            <feColorMatrix values="0 0 0 0 0 0 0 0 0 0 0 0 0 0 0 0 0 0 0.2 0"/>
            <feBlend in2="BackgroundImageFix" result="effect1_dropShadow"/>
            <feColorMatrix in="SourceAlpha" values="0 0 0 0 0 0 0 0 0 0 0 0 0 0 0 0 0 0 127 0"/>
            <feOffset dy="3"/>
            <feGaussianBlur stdDeviation="2"/>
            <feColorMatrix values="0 0 0 0 0 0 0 0 0 0 0 0 0 0 0 0 0 0 0.12 0"/>
            <feBlend in2="effect1_dropShadow" result="effect2_dropShadow"/>
            <feColorMatrix in="SourceAlpha" values="0 0 0 0 0 0 0 0 0 0 0 0 0 0 0 0 0 0 127 0"/>
            <feOffset dy="2"/>
            <feGaussianBlur stdDeviation="2"/>
            <feColorMatrix values="0 0 0 0 0 0 0 0 0 0 0 0 0 0 0 0 0 0 0.14 0"/>
            <feBlend in2="effect2_dropShadow" result="effect3_dropShadow"/>
            <feBlend in="SourceGraphic" in2="effect3_dropShadow" result="shape"/>
        </filter>
        <filter id="d" width="408" height="708" x="0" y="2" color-interpolation-filters="sRGB" filterUnits="userSpaceOnUse">
            <feFlood flood-opacity="0" result="BackgroundImageFix"/>
            <feColorMatrix in="SourceAlpha" values="0 0 0 0 0 0 0 0 0 0 0 0 0 0 0 0 0 0 127 0"/>
            <feOffset dy="2"/>
            <feGaussianBlur stdDeviation="2"/>
            <feColorMatrix values="0 0 0 0 0 0 0 0 0 0 0 0 0 0 0 0 0 0 0.25 0"/>
            <feBlend in2="BackgroundImageFix" result="effect1_dropShadow"/>
            <feBlend in="SourceGraphic" in2="effect1_dropShadow" result="shape"/>
        </filter>
        <filter id="e" width="408" height="708" x="0" y="2" color-interpolation-filters="sRGB" filterUnits="userSpaceOnUse">
            <feFlood flood-opacity="0" result="BackgroundImageFix"/>
            <feColorMatrix in="SourceAlpha" values="0 0 0 0 0 0 0 0 0 0 0 0 0 0 0 0 0 0 127 0"/>
            <feOffset dy="2"/>
            <feGaussianBlur stdDeviation="2"/>
            <feColorMatrix values="0 0 0 0 0 0 0 0 0 0 0 0 0 0 0 0 0 0 0.25 0"/>
            <feBlend in2="BackgroundImageFix" result="effect1_dropShadow"/>
            <feBlend in="SourceGraphic" in2="effect1_dropShadow" result="shape"/>
        </filter>
    </defs>
</svg>
