<svg xmlns="http://www.w3.org/2000/svg" width="84" height="62" fill="none" viewBox="0 0 84 62">
    <mask id="a" width="84" height="62" x="0" y="0" maskUnits="userSpaceOnUse">
        <path fill="#fff" d="M64.88 57.993L19.88 61.445V28.996c.006-1.431.006-2.236 0-2.416C19.47 11.467 13.15 0 .494 0h83.08C70.917 0 65.29 11.467 64.88 26.58c-.005.18-.005.985 0 2.416v28.997z"/>
    </mask>
    <g mask="url(#a)">
        <path fill="#2E272D" d="M64.88 57.993L19.88 61.445V28.996c.006-1.431.006-2.236 0-2.416C19.47 11.467 13.15 0 .494 0h83.08C70.917 0 65.29 11.467 64.88 26.58c-.005.18-.005.985 0 2.416v28.997z"/>
        <path fill="#FEFEFE" fill-rule="evenodd" d="M49.65 33.117c-.32-1.459-.443-2.435-1.616-2.424-.918-.01-2.025 1.698-2.423 4.04v8.884h-4.846v-10.5c-.044-1.459-.168-2.435-.808-2.424-1.451-.01-2.558 1.698-2.423 4.04v8.884H31.88v-8.885c.23-5.026-1.615-6.735-1.615-6.462l4.038-1.616c.144 0 1.127 1.099 1.615 3.232 1.112-2.254 3.08-3.232 5.655-3.232 1.73 0 2.96.856 3.23 2.424 1.452-1.813 3.174-2.424 4.847-2.424 3.739 0 4.846 2.319 4.846 5.655v11.308H49.65v-10.5z" clip-rule="evenodd"/>
    </g>
</svg>
